<svg width="311" height="56" viewBox="0 0 311 56" fill="none" xmlns="http://www.w3.org/2000/svg">
<path d="M7.96 26.2H19.16L19.44 27.2H7.44L7.96 26.2ZM28.72 36.52C28.8267 36.52 28.88 36.6 28.88 36.76C28.88 36.92 28.8267 37 28.72 37C28.2133 37 27.4 36.9733 26.28 36.92C25.16 36.8667 24.3467 36.84 23.84 36.84C23.1733 36.84 22.3867 36.8667 21.48 36.92C20.5733 36.9733 19.8667 37 19.36 37C19.2533 37 19.2 36.92 19.2 36.76C19.2 36.6 19.2533 36.52 19.36 36.52C20.16 36.52 20.7333 36.44 21.08 36.28C21.4267 36.0933 21.6 35.8 21.6 35.4C21.6 35 21.3733 34.32 20.92 33.36L12.56 16.36L14.2 13.68L6.28 31.52C5.93333 32.32 5.76 33.04 5.76 33.68C5.76 34.6133 6.09333 35.32 6.76 35.8C7.42667 36.28 8.36 36.52 9.56 36.52C9.69333 36.52 9.76 36.6 9.76 36.76C9.76 36.92 9.69333 37 9.56 37C9.08 37 8.38667 36.9733 7.48 36.92C6.46667 36.8667 5.58667 36.84 4.84 36.84C4.12 36.84 3.28 36.8667 2.32 36.92C1.46667 36.9733 0.759999 37 0.199999 37C0.0666654 37 -1.22935e-06 36.92 -1.22935e-06 36.76C-1.22935e-06 36.6 0.0666654 36.52 0.199999 36.52C0.946665 36.52 1.57333 36.3733 2.08 36.08C2.58667 35.7867 3.08 35.2667 3.56 34.52C4.04 33.7467 4.61333 32.6133 5.28 31.12L13.88 11.76C13.9333 11.68 14.0533 11.64 14.24 11.64C14.4267 11.64 14.5333 11.68 14.56 11.76L24.36 31.52C25.2667 33.44 26.0267 34.76 26.64 35.48C27.28 36.1733 27.9733 36.52 28.72 36.52ZM50.1513 16.88C50.1513 15.4933 49.8313 14.4133 49.1913 13.64C48.5779 12.8667 47.6846 12.48 46.5112 12.48C46.4579 12.48 46.4312 12.4 46.4312 12.24C46.4312 12.08 46.4579 12 46.5112 12L48.3512 12.04C49.3646 12.0933 50.1646 12.12 50.7512 12.12C51.2312 12.12 51.9513 12.0933 52.9113 12.04L54.6712 12C54.7246 12 54.7513 12.08 54.7513 12.24C54.7513 12.4 54.7246 12.48 54.6712 12.48C53.6313 12.48 52.8179 12.8667 52.2312 13.64C51.6713 14.4133 51.3913 15.4933 51.3913 16.88V28.08C51.3913 30 50.9779 31.68 50.1513 33.12C49.3512 34.5333 48.2046 35.6267 46.7112 36.4C45.2446 37.1733 43.5379 37.56 41.5912 37.56C39.6446 37.56 37.9112 37.1867 36.3912 36.44C34.8712 35.6667 33.6846 34.5733 32.8312 33.16C32.0046 31.72 31.5912 30.04 31.5912 28.12V15.24C31.5912 14.44 31.5112 13.8533 31.3512 13.48C31.1912 13.1067 30.8979 12.8533 30.4712 12.72C30.0712 12.56 29.4312 12.48 28.5512 12.48C28.4712 12.48 28.4312 12.4 28.4312 12.24C28.4312 12.08 28.4712 12 28.5512 12L30.6312 12.04C31.8046 12.0933 32.7512 12.12 33.4712 12.12C34.2712 12.12 35.2579 12.0933 36.4312 12.04L38.4312 12C38.5112 12 38.5512 12.08 38.5512 12.24C38.5512 12.4 38.5112 12.48 38.4312 12.48C37.5512 12.48 36.8979 12.56 36.4712 12.72C36.0446 12.88 35.7512 13.16 35.5912 13.56C35.4579 13.9333 35.3912 14.52 35.3912 15.32V26.72C35.3912 29.8933 36.0446 32.2667 37.3512 33.84C38.6846 35.3867 40.5379 36.16 42.9112 36.16C45.1779 36.16 46.9512 35.4667 48.2312 34.08C49.5112 32.6667 50.1513 30.68 50.1513 28.12V16.88ZM76.8781 37C76.2381 37 75.0515 35.88 73.3181 33.64C71.6115 31.4 69.5315 28.28 67.0781 24.28L70.2781 23.32C72.5181 26.6533 74.3848 29.2667 75.8781 31.16C77.3981 33.0267 78.7448 34.3867 79.9181 35.24C81.0915 36.0933 82.2248 36.52 83.3181 36.52C83.3715 36.52 83.3981 36.6 83.3981 36.76C83.3981 36.92 83.3715 37 83.3181 37H76.8781ZM67.7981 11.88C70.0915 11.88 71.8781 12.3467 73.1581 13.28C74.4381 14.1867 75.0781 15.44 75.0781 17.04C75.0781 18.5333 74.6515 19.88 73.7981 21.08C72.9448 22.28 71.8115 23.2267 70.3981 23.92C69.0115 24.5867 67.5448 24.92 65.9981 24.92C65.4381 24.92 64.7581 24.8933 63.9581 24.84V33.76C63.9581 34.5867 64.0248 35.1867 64.1581 35.56C64.2915 35.9333 64.5581 36.1867 64.9581 36.32C65.3848 36.4533 66.0648 36.52 66.9981 36.52C67.0515 36.52 67.0781 36.6 67.0781 36.76C67.0781 36.92 67.0515 37 66.9981 37C66.1181 37 65.4248 36.9867 64.9181 36.96L61.9981 36.92L59.1181 36.96C58.6115 36.9867 57.9181 37 57.0381 37C56.9581 37 56.9181 36.92 56.9181 36.76C56.9181 36.6 56.9581 36.52 57.0381 36.52C57.9448 36.52 58.5981 36.4533 58.9981 36.32C59.4248 36.1867 59.7181 35.9333 59.8781 35.56C60.0381 35.16 60.1181 34.56 60.1181 33.76V15.24C60.1181 14.44 60.0381 13.8533 59.8781 13.48C59.7448 13.1067 59.4648 12.8533 59.0381 12.72C58.6115 12.56 57.9581 12.48 57.0781 12.48C57.0248 12.48 56.9981 12.4 56.9981 12.24C56.9981 12.08 57.0248 12 57.0781 12L59.1581 12.04C60.3315 12.0933 61.2781 12.12 61.9981 12.12C62.8781 12.12 63.8381 12.08 64.8781 12C65.2248 11.9733 65.6381 11.9467 66.1181 11.92C66.6248 11.8933 67.1848 11.88 67.7981 11.88ZM71.1181 18.44C71.1181 16.28 70.7448 14.7733 69.9981 13.92C69.2781 13.0667 68.2248 12.64 66.8381 12.64C65.7715 12.64 65.0248 12.84 64.5981 13.24C64.1715 13.6133 63.9581 14.3067 63.9581 15.32V23.76C64.5981 23.8667 65.3715 23.92 66.2781 23.92C68.0115 23.92 69.2515 23.4933 69.9981 22.64C70.7448 21.76 71.1181 20.36 71.1181 18.44ZM90.6162 26.2H101.816L102.096 27.2H90.0962L90.6162 26.2ZM111.376 36.52C111.483 36.52 111.536 36.6 111.536 36.76C111.536 36.92 111.483 37 111.376 37C110.87 37 110.056 36.9733 108.936 36.92C107.816 36.8667 107.003 36.84 106.496 36.84C105.83 36.84 105.043 36.8667 104.136 36.92C103.23 36.9733 102.523 37 102.016 37C101.91 37 101.856 36.92 101.856 36.76C101.856 36.6 101.91 36.52 102.016 36.52C102.816 36.52 103.39 36.44 103.736 36.28C104.083 36.0933 104.256 35.8 104.256 35.4C104.256 35 104.03 34.32 103.576 33.36L95.2162 16.36L96.8562 13.68L88.9362 31.52C88.5896 32.32 88.4162 33.04 88.4162 33.68C88.4162 34.6133 88.7496 35.32 89.4162 35.8C90.0829 36.28 91.0162 36.52 92.2162 36.52C92.3496 36.52 92.4162 36.6 92.4162 36.76C92.4162 36.92 92.3496 37 92.2162 37C91.7362 37 91.0429 36.9733 90.1362 36.92C89.1229 36.8667 88.2429 36.84 87.4962 36.84C86.7762 36.84 85.9362 36.8667 84.9762 36.92C84.1229 36.9733 83.4162 37 82.8562 37C82.7229 37 82.6562 36.92 82.6562 36.76C82.6562 36.6 82.7229 36.52 82.8562 36.52C83.6029 36.52 84.2296 36.3733 84.7362 36.08C85.2429 35.7867 85.7362 35.2667 86.2162 34.52C86.6962 33.7467 87.2696 32.6133 87.9362 31.12L96.5362 11.76C96.5896 11.68 96.7096 11.64 96.8962 11.64C97.0829 11.64 97.1896 11.68 97.2162 11.76L107.016 31.52C107.923 33.44 108.683 34.76 109.296 35.48C109.936 36.1733 110.63 36.52 111.376 36.52ZM142.869 15.32C142.869 14.52 142.789 13.9333 142.629 13.56C142.469 13.16 142.149 12.88 141.669 12.72C141.189 12.56 140.455 12.48 139.469 12.48C139.389 12.48 139.349 12.4 139.349 12.24C139.349 12.08 139.389 12 139.469 12L141.389 12.04C142.669 12.0933 143.802 12.12 144.789 12.12C145.509 12.12 146.482 12.0933 147.709 12.04L149.909 12C149.989 12 150.029 12.08 150.029 12.24C150.029 12.4 149.989 12.48 149.909 12.48C148.949 12.48 148.242 12.56 147.789 12.72C147.335 12.8533 147.029 13.1067 146.869 13.48C146.709 13.8533 146.629 14.44 146.629 15.24V33.76C146.629 34.56 146.709 35.16 146.869 35.56C147.029 35.9333 147.335 36.1867 147.789 36.32C148.242 36.4533 148.949 36.52 149.909 36.52C149.989 36.52 150.029 36.6 150.029 36.76C150.029 36.92 149.989 37 149.909 37C149.002 37 148.269 36.9867 147.709 36.96L144.789 36.92L141.389 36.96C140.909 36.9867 140.269 37 139.469 37C139.389 37 139.349 36.92 139.349 36.76C139.349 36.6 139.389 36.52 139.469 36.52C140.482 36.52 141.215 36.4533 141.669 36.32C142.149 36.1867 142.469 35.9333 142.629 35.56C142.789 35.16 142.869 34.56 142.869 33.76V15.32ZM127.069 23.48H144.589V24.52H127.069V23.48ZM125.309 15.24C125.309 14.44 125.229 13.8533 125.069 13.48C124.909 13.1067 124.602 12.8533 124.149 12.72C123.695 12.56 123.002 12.48 122.069 12.48C122.015 12.48 121.989 12.4 121.989 12.24C121.989 12.08 122.015 12 122.069 12L124.189 12.04C125.415 12.0933 126.375 12.12 127.069 12.12C128.002 12.12 129.109 12.0933 130.389 12.04L132.469 12C132.522 12 132.549 12.08 132.549 12.24C132.549 12.4 132.522 12.48 132.469 12.48C131.509 12.48 130.789 12.56 130.309 12.72C129.855 12.88 129.535 13.16 129.349 13.56C129.189 13.9333 129.109 14.52 129.109 15.32V33.76C129.109 34.56 129.189 35.16 129.349 35.56C129.509 35.9333 129.815 36.1867 130.269 36.32C130.749 36.4533 131.482 36.52 132.469 36.52C132.522 36.52 132.549 36.6 132.549 36.76C132.549 36.92 132.522 37 132.469 37C131.562 37 130.855 36.9867 130.349 36.96L127.069 36.92L124.149 36.96C123.642 36.9867 122.935 37 122.029 37C121.975 37 121.949 36.92 121.949 36.76C121.949 36.6 121.975 36.52 122.029 36.52C122.989 36.52 123.695 36.4533 124.149 36.32C124.602 36.1867 124.909 35.9333 125.069 35.56C125.229 35.16 125.309 34.56 125.309 33.76V15.24ZM159.897 33.76C159.897 34.5867 159.964 35.1867 160.097 35.56C160.257 35.9333 160.537 36.1867 160.937 36.32C161.364 36.4533 162.031 36.52 162.937 36.52C163.017 36.52 163.057 36.6 163.057 36.76C163.057 36.92 163.017 37 162.937 37C162.084 37 161.404 36.9867 160.897 36.96L157.937 36.92L155.057 36.96C154.551 36.9867 153.857 37 152.977 37C152.897 37 152.857 36.92 152.857 36.76C152.857 36.6 152.897 36.52 152.977 36.52C153.884 36.52 154.537 36.4533 154.937 36.32C155.364 36.1867 155.657 35.9333 155.817 35.56C155.977 35.16 156.057 34.56 156.057 33.76V15.24C156.057 14.44 155.977 13.8533 155.817 13.48C155.657 13.1067 155.364 12.8533 154.937 12.72C154.537 12.56 153.884 12.48 152.977 12.48C152.897 12.48 152.857 12.4 152.857 12.24C152.857 12.08 152.897 12 152.977 12L155.057 12.04C156.231 12.0933 157.191 12.12 157.937 12.12C158.764 12.12 159.764 12.0933 160.937 12.04L162.937 12C163.017 12 163.057 12.08 163.057 12.24C163.057 12.4 163.017 12.48 162.937 12.48C162.057 12.48 161.404 12.56 160.977 12.72C160.551 12.88 160.257 13.16 160.097 13.56C159.964 13.9333 159.897 14.52 159.897 15.32V33.76ZM171.332 16.24C171.332 17.2267 171.572 18.1067 172.052 18.88C172.559 19.6267 173.172 20.28 173.892 20.84C174.612 21.3733 175.599 22.04 176.852 22.84C178.212 23.6933 179.279 24.4267 180.052 25.04C180.852 25.6533 181.532 26.4133 182.092 27.32C182.652 28.2 182.932 29.24 182.932 30.44C182.932 31.8 182.572 33.0133 181.852 34.08C181.159 35.1467 180.159 35.9867 178.852 36.6C177.572 37.1867 176.106 37.48 174.452 37.48C173.332 37.48 172.172 37.3333 170.972 37.04C169.799 36.7467 168.906 36.3867 168.292 35.96C168.052 35.8 167.919 35.5467 167.892 35.2L167.652 29.16V29.12C167.652 29.0133 167.719 28.96 167.852 28.96C167.986 28.9333 168.066 28.9733 168.092 29.08C168.972 31.2667 169.972 33.0667 171.092 34.48C172.239 35.8933 173.679 36.6 175.412 36.6C176.586 36.6 177.559 36.2933 178.332 35.68C179.106 35.04 179.492 33.9867 179.492 32.52C179.492 31.3467 179.226 30.32 178.692 29.44C178.186 28.56 177.546 27.8267 176.772 27.24C176.026 26.6533 174.999 25.9333 173.692 25.08C172.412 24.2533 171.412 23.56 170.692 23C169.972 22.4133 169.359 21.7067 168.852 20.88C168.346 20.0267 168.092 19.04 168.092 17.92C168.092 16.5333 168.479 15.36 169.252 14.4C170.026 13.44 171.026 12.7333 172.252 12.28C173.506 11.8 174.812 11.56 176.172 11.56C177.052 11.56 177.946 11.6533 178.852 11.84C179.759 12 180.532 12.2133 181.172 12.48C181.572 12.64 181.772 12.8933 181.772 13.24L181.852 18.64C181.852 18.7467 181.786 18.8133 181.652 18.84C181.546 18.8667 181.466 18.84 181.412 18.76C180.879 17.1333 180.159 15.6667 179.252 14.36C178.372 13.0267 177.039 12.36 175.252 12.36C174.052 12.36 173.092 12.72 172.372 13.44C171.679 14.1333 171.332 15.0667 171.332 16.24ZM193.446 12.84C191.819 12.84 190.486 13.3467 189.446 14.36C188.406 15.3467 187.606 16.84 187.046 18.84C187.046 18.92 186.966 18.96 186.806 18.96C186.672 18.9333 186.606 18.8933 186.606 18.84C186.712 17.8 186.832 16.4667 186.966 14.84C187.099 13.1867 187.166 11.9467 187.166 11.12C187.166 10.9867 187.232 10.92 187.366 10.92C187.526 10.92 187.606 10.9867 187.606 11.12C187.606 11.7067 188.352 12 189.846 12C192.139 12.08 194.819 12.12 197.886 12.12C199.459 12.12 201.126 12.0933 202.886 12.04L205.606 12C206.619 12 207.352 11.9333 207.806 11.8C208.286 11.6667 208.592 11.4 208.726 11C208.752 10.8933 208.832 10.84 208.966 10.84C209.099 10.84 209.166 10.8933 209.166 11C209.086 11.8267 209.006 13.08 208.926 14.76C208.846 16.44 208.806 17.8 208.806 18.84C208.806 18.8933 208.726 18.92 208.566 18.92C208.432 18.92 208.352 18.8933 208.326 18.84C208.059 16.7867 207.432 15.28 206.446 14.32C205.459 13.3333 204.126 12.84 202.446 12.84C201.699 12.84 201.139 12.9067 200.766 13.04C200.419 13.1733 200.179 13.4133 200.046 13.76C199.912 14.08 199.846 14.6 199.846 15.32V33.76C199.846 34.56 199.926 35.16 200.086 35.56C200.272 35.9333 200.606 36.1867 201.086 36.32C201.566 36.4533 202.326 36.52 203.366 36.52C203.446 36.52 203.486 36.6 203.486 36.76C203.486 36.92 203.446 37 203.366 37C202.432 37 201.699 36.9867 201.166 36.96L197.886 36.92L194.766 36.96C194.206 36.9867 193.432 37 192.446 37C192.392 37 192.366 36.92 192.366 36.76C192.366 36.6 192.392 36.52 192.446 36.52C193.486 36.52 194.246 36.4533 194.726 36.32C195.232 36.1867 195.566 35.9333 195.726 35.56C195.912 35.16 196.006 34.56 196.006 33.76V15.24C196.006 14.5467 195.939 14.04 195.806 13.72C195.672 13.3733 195.432 13.1467 195.086 13.04C194.739 12.9067 194.192 12.84 193.446 12.84ZM224.647 37.48C222.167 37.48 219.953 36.9067 218.007 35.76C216.087 34.5867 214.593 33.0133 213.527 31.04C212.487 29.04 211.967 26.8667 211.967 24.52C211.967 21.7733 212.66 19.4267 214.047 17.48C215.433 15.5067 217.207 14.0267 219.367 13.04C221.553 12.0533 223.78 11.56 226.047 11.56C228.58 11.56 230.807 12.16 232.727 13.36C234.647 14.5333 236.113 16.0933 237.127 18.04C238.167 19.9867 238.687 22.0533 238.687 24.24C238.687 26.6667 238.047 28.8933 236.767 30.92C235.487 32.9467 233.767 34.5467 231.607 35.72C229.473 36.8933 227.153 37.48 224.647 37.48ZM226.007 36.52C227.607 36.52 229.033 36.0933 230.287 35.24C231.567 34.36 232.567 33.08 233.287 31.4C234.033 29.72 234.407 27.72 234.407 25.4C234.407 22.92 233.993 20.72 233.167 18.8C232.367 16.8533 231.207 15.3333 229.687 14.24C228.193 13.1467 226.433 12.6 224.407 12.6C221.793 12.6 219.78 13.5333 218.367 15.4C216.953 17.24 216.247 19.8 216.247 23.08C216.247 25.64 216.66 27.9467 217.487 30C218.313 32.0267 219.473 33.6267 220.967 34.8C222.46 35.9467 224.14 36.52 226.007 36.52ZM262.152 37C261.512 37 260.325 35.88 258.592 33.64C256.885 31.4 254.805 28.28 252.352 24.28L255.552 23.32C257.792 26.6533 259.658 29.2667 261.152 31.16C262.672 33.0267 264.018 34.3867 265.192 35.24C266.365 36.0933 267.498 36.52 268.592 36.52C268.645 36.52 268.672 36.6 268.672 36.76C268.672 36.92 268.645 37 268.592 37H262.152ZM253.072 11.88C255.365 11.88 257.152 12.3467 258.432 13.28C259.712 14.1867 260.352 15.44 260.352 17.04C260.352 18.5333 259.925 19.88 259.072 21.08C258.218 22.28 257.085 23.2267 255.672 23.92C254.285 24.5867 252.818 24.92 251.272 24.92C250.712 24.92 250.032 24.8933 249.232 24.84V33.76C249.232 34.5867 249.298 35.1867 249.432 35.56C249.565 35.9333 249.832 36.1867 250.232 36.32C250.658 36.4533 251.338 36.52 252.272 36.52C252.325 36.52 252.352 36.6 252.352 36.76C252.352 36.92 252.325 37 252.272 37C251.392 37 250.698 36.9867 250.192 36.96L247.272 36.92L244.392 36.96C243.885 36.9867 243.192 37 242.312 37C242.232 37 242.192 36.92 242.192 36.76C242.192 36.6 242.232 36.52 242.312 36.52C243.218 36.52 243.872 36.4533 244.272 36.32C244.698 36.1867 244.992 35.9333 245.152 35.56C245.312 35.16 245.392 34.56 245.392 33.76V15.24C245.392 14.44 245.312 13.8533 245.152 13.48C245.018 13.1067 244.738 12.8533 244.312 12.72C243.885 12.56 243.232 12.48 242.352 12.48C242.298 12.48 242.272 12.4 242.272 12.24C242.272 12.08 242.298 12 242.352 12L244.432 12.04C245.605 12.0933 246.552 12.12 247.272 12.12C248.152 12.12 249.112 12.08 250.152 12C250.498 11.9733 250.912 11.9467 251.392 11.92C251.898 11.8933 252.458 11.88 253.072 11.88ZM256.392 18.44C256.392 16.28 256.018 14.7733 255.272 13.92C254.552 13.0667 253.498 12.64 252.112 12.64C251.045 12.64 250.298 12.84 249.872 13.24C249.445 13.6133 249.232 14.3067 249.232 15.32V23.76C249.872 23.8667 250.645 23.92 251.552 23.92C253.285 23.92 254.525 23.4933 255.272 22.64C256.018 21.76 256.392 20.36 256.392 18.44ZM276.89 33.76C276.89 34.5867 276.956 35.1867 277.09 35.56C277.25 35.9333 277.53 36.1867 277.93 36.32C278.356 36.4533 279.023 36.52 279.93 36.52C280.01 36.52 280.05 36.6 280.05 36.76C280.05 36.92 280.01 37 279.93 37C279.076 37 278.396 36.9867 277.89 36.96L274.93 36.92L272.05 36.96C271.543 36.9867 270.85 37 269.97 37C269.89 37 269.85 36.92 269.85 36.76C269.85 36.6 269.89 36.52 269.97 36.52C270.876 36.52 271.53 36.4533 271.93 36.32C272.356 36.1867 272.65 35.9333 272.81 35.56C272.97 35.16 273.05 34.56 273.05 33.76V15.24C273.05 14.44 272.97 13.8533 272.81 13.48C272.65 13.1067 272.356 12.8533 271.93 12.72C271.53 12.56 270.876 12.48 269.97 12.48C269.89 12.48 269.85 12.4 269.85 12.24C269.85 12.08 269.89 12 269.97 12L272.05 12.04C273.223 12.0933 274.183 12.12 274.93 12.12C275.756 12.12 276.756 12.0933 277.93 12.04L279.93 12C280.01 12 280.05 12.08 280.05 12.24C280.05 12.4 280.01 12.48 279.93 12.48C279.05 12.48 278.396 12.56 277.97 12.72C277.543 12.88 277.25 13.16 277.09 13.56C276.956 13.9333 276.89 14.52 276.89 15.32V33.76ZM289.444 26.2H300.644L300.924 27.2H288.924L289.444 26.2ZM310.204 36.52C310.311 36.52 310.364 36.6 310.364 36.76C310.364 36.92 310.311 37 310.204 37C309.698 37 308.884 36.9733 307.764 36.92C306.644 36.8667 305.831 36.84 305.324 36.84C304.658 36.84 303.871 36.8667 302.964 36.92C302.058 36.9733 301.351 37 300.844 37C300.738 37 300.684 36.92 300.684 36.76C300.684 36.6 300.738 36.52 300.844 36.52C301.644 36.52 302.218 36.44 302.564 36.28C302.911 36.0933 303.084 35.8 303.084 35.4C303.084 35 302.858 34.32 302.404 33.36L294.044 16.36L295.684 13.68L287.764 31.52C287.418 32.32 287.244 33.04 287.244 33.68C287.244 34.6133 287.578 35.32 288.244 35.8C288.911 36.28 289.844 36.52 291.044 36.52C291.178 36.52 291.244 36.6 291.244 36.76C291.244 36.92 291.178 37 291.044 37C290.564 37 289.871 36.9733 288.964 36.92C287.951 36.8667 287.071 36.84 286.324 36.84C285.604 36.84 284.764 36.8667 283.804 36.92C282.951 36.9733 282.244 37 281.684 37C281.551 37 281.484 36.92 281.484 36.76C281.484 36.6 281.551 36.52 281.684 36.52C282.431 36.52 283.058 36.3733 283.564 36.08C284.071 35.7867 284.564 35.2667 285.044 34.52C285.524 33.7467 286.098 32.6133 286.764 31.12L295.364 11.76C295.418 11.68 295.538 11.64 295.724 11.64C295.911 11.64 296.018 11.68 296.044 11.76L305.844 31.52C306.751 33.44 307.511 34.76 308.124 35.48C308.764 36.1733 309.458 36.52 310.204 36.52Z" fill="black"/>
<path d="M235.893 41.6509L242.942 53.2045C243.158 53.5581 243.046 54.0197 242.693 54.2354L241.004 55.2659C240.65 55.4816 240.188 55.3698 239.973 55.0163L232.924 43.4627L235.893 41.6509Z" fill="black" stroke="black" stroke-width="0.5"/>
<path d="M232.406 42.3129L230.227 38.7416C230.084 38.5059 230.158 38.1982 230.394 38.0543L232.208 36.9475C232.443 36.8037 232.751 36.8783 232.895 37.114L235.074 40.6853L232.406 42.3129Z" stroke="black"/>
</svg>
