<svg width="190" height="104" viewBox="0 0 190 104" fill="none" xmlns="http://www.w3.org/2000/svg">
<path d="M42.4456 26.2H53.6456L53.9256 27.2H41.9256L42.4456 26.2ZM63.2056 36.52C63.3123 36.52 63.3656 36.6 63.3656 36.76C63.3656 36.92 63.3123 37 63.2056 37C62.699 37 61.8856 36.9733 60.7656 36.92C59.6456 36.8667 58.8323 36.84 58.3256 36.84C57.659 36.84 56.8723 36.8667 55.9656 36.92C55.059 36.9733 54.3523 37 53.8456 37C53.739 37 53.6856 36.92 53.6856 36.76C53.6856 36.6 53.739 36.52 53.8456 36.52C54.6456 36.52 55.219 36.44 55.5656 36.28C55.9123 36.0933 56.0856 35.8 56.0856 35.4C56.0856 35 55.859 34.32 55.4056 33.36L47.0456 16.36L48.6856 13.68L40.7656 31.52C40.419 32.32 40.2456 33.04 40.2456 33.68C40.2456 34.6133 40.579 35.32 41.2456 35.8C41.9123 36.28 42.8456 36.52 44.0456 36.52C44.179 36.52 44.2456 36.6 44.2456 36.76C44.2456 36.92 44.179 37 44.0456 37C43.5656 37 42.8723 36.9733 41.9656 36.92C40.9523 36.8667 40.0723 36.84 39.3256 36.84C38.6056 36.84 37.7656 36.8667 36.8056 36.92C35.9523 36.9733 35.2456 37 34.6856 37C34.5523 37 34.4856 36.92 34.4856 36.76C34.4856 36.6 34.5523 36.52 34.6856 36.52C35.4323 36.52 36.059 36.3733 36.5656 36.08C37.0723 35.7867 37.5656 35.2667 38.0456 34.52C38.5256 33.7467 39.099 32.6133 39.7656 31.12L48.3656 11.76C48.419 11.68 48.539 11.64 48.7256 11.64C48.9123 11.64 49.019 11.68 49.0456 11.76L58.8456 31.52C59.7523 33.44 60.5123 34.76 61.1256 35.48C61.7656 36.1733 62.459 36.52 63.2056 36.52ZM84.6369 16.88C84.6369 15.4933 84.3169 14.4133 83.6769 13.64C83.0635 12.8667 82.1702 12.48 80.9969 12.48C80.9435 12.48 80.9169 12.4 80.9169 12.24C80.9169 12.08 80.9435 12 80.9969 12L82.8369 12.04C83.8502 12.0933 84.6502 12.12 85.2369 12.12C85.7169 12.12 86.4369 12.0933 87.3969 12.04L89.1569 12C89.2102 12 89.2369 12.08 89.2369 12.24C89.2369 12.4 89.2102 12.48 89.1569 12.48C88.1169 12.48 87.3035 12.8667 86.7169 13.64C86.1569 14.4133 85.8769 15.4933 85.8769 16.88V28.08C85.8769 30 85.4635 31.68 84.6369 33.12C83.8369 34.5333 82.6902 35.6267 81.1969 36.4C79.7302 37.1733 78.0235 37.56 76.0769 37.56C74.1302 37.56 72.3969 37.1867 70.8769 36.44C69.3569 35.6667 68.1702 34.5733 67.3169 33.16C66.4902 31.72 66.0769 30.04 66.0769 28.12V15.24C66.0769 14.44 65.9969 13.8533 65.8369 13.48C65.6769 13.1067 65.3835 12.8533 64.9569 12.72C64.5569 12.56 63.9169 12.48 63.0369 12.48C62.9569 12.48 62.9169 12.4 62.9169 12.24C62.9169 12.08 62.9569 12 63.0369 12L65.1169 12.04C66.2902 12.0933 67.2369 12.12 67.9569 12.12C68.7569 12.12 69.7435 12.0933 70.9169 12.04L72.9169 12C72.9969 12 73.0369 12.08 73.0369 12.24C73.0369 12.4 72.9969 12.48 72.9169 12.48C72.0369 12.48 71.3835 12.56 70.9569 12.72C70.5302 12.88 70.2369 13.16 70.0769 13.56C69.9435 13.9333 69.8769 14.52 69.8769 15.32V26.72C69.8769 29.8933 70.5302 32.2667 71.8369 33.84C73.1702 35.3867 75.0235 36.16 77.3969 36.16C79.6635 36.16 81.4369 35.4667 82.7169 34.08C83.9969 32.6667 84.6369 30.68 84.6369 28.12V16.88ZM111.364 37C110.724 37 109.537 35.88 107.804 33.64C106.097 31.4 104.017 28.28 101.564 24.28L104.764 23.32C107.004 26.6533 108.87 29.2667 110.364 31.16C111.884 33.0267 113.23 34.3867 114.404 35.24C115.577 36.0933 116.71 36.52 117.804 36.52C117.857 36.52 117.884 36.6 117.884 36.76C117.884 36.92 117.857 37 117.804 37H111.364ZM102.284 11.88C104.577 11.88 106.364 12.3467 107.644 13.28C108.924 14.1867 109.564 15.44 109.564 17.04C109.564 18.5333 109.137 19.88 108.284 21.08C107.43 22.28 106.297 23.2267 104.884 23.92C103.497 24.5867 102.03 24.92 100.484 24.92C99.9238 24.92 99.2438 24.8933 98.4438 24.84V33.76C98.4438 34.5867 98.5104 35.1867 98.6438 35.56C98.7771 35.9333 99.0438 36.1867 99.4438 36.32C99.8704 36.4533 100.55 36.52 101.484 36.52C101.537 36.52 101.564 36.6 101.564 36.76C101.564 36.92 101.537 37 101.484 37C100.604 37 99.9104 36.9867 99.4038 36.96L96.4838 36.92L93.6038 36.96C93.0971 36.9867 92.4038 37 91.5238 37C91.4438 37 91.4038 36.92 91.4038 36.76C91.4038 36.6 91.4438 36.52 91.5238 36.52C92.4304 36.52 93.0838 36.4533 93.4838 36.32C93.9104 36.1867 94.2038 35.9333 94.3638 35.56C94.5238 35.16 94.6038 34.56 94.6038 33.76V15.24C94.6038 14.44 94.5238 13.8533 94.3638 13.48C94.2304 13.1067 93.9504 12.8533 93.5238 12.72C93.0971 12.56 92.4438 12.48 91.5638 12.48C91.5104 12.48 91.4838 12.4 91.4838 12.24C91.4838 12.08 91.5104 12 91.5638 12L93.6438 12.04C94.8171 12.0933 95.7638 12.12 96.4838 12.12C97.3638 12.12 98.3238 12.08 99.3638 12C99.7104 11.9733 100.124 11.9467 100.604 11.92C101.11 11.8933 101.67 11.88 102.284 11.88ZM105.604 18.44C105.604 16.28 105.23 14.7733 104.484 13.92C103.764 13.0667 102.71 12.64 101.324 12.64C100.257 12.64 99.5104 12.84 99.0838 13.24C98.6571 13.6133 98.4438 14.3067 98.4438 15.32V23.76C99.0838 23.8667 99.8571 23.92 100.764 23.92C102.497 23.92 103.737 23.4933 104.484 22.64C105.23 21.76 105.604 20.36 105.604 18.44ZM125.102 26.2H136.302L136.582 27.2H124.582L125.102 26.2ZM145.862 36.52C145.969 36.52 146.022 36.6 146.022 36.76C146.022 36.92 145.969 37 145.862 37C145.355 37 144.542 36.9733 143.422 36.92C142.302 36.8667 141.489 36.84 140.982 36.84C140.315 36.84 139.529 36.8667 138.622 36.92C137.715 36.9733 137.009 37 136.502 37C136.395 37 136.342 36.92 136.342 36.76C136.342 36.6 136.395 36.52 136.502 36.52C137.302 36.52 137.875 36.44 138.222 36.28C138.569 36.0933 138.742 35.8 138.742 35.4C138.742 35 138.515 34.32 138.062 33.36L129.702 16.36L131.342 13.68L123.422 31.52C123.075 32.32 122.902 33.04 122.902 33.68C122.902 34.6133 123.235 35.32 123.902 35.8C124.569 36.28 125.502 36.52 126.702 36.52C126.835 36.52 126.902 36.6 126.902 36.76C126.902 36.92 126.835 37 126.702 37C126.222 37 125.529 36.9733 124.622 36.92C123.609 36.8667 122.729 36.84 121.982 36.84C121.262 36.84 120.422 36.8667 119.462 36.92C118.609 36.9733 117.902 37 117.342 37C117.209 37 117.142 36.92 117.142 36.76C117.142 36.6 117.209 36.52 117.342 36.52C118.089 36.52 118.715 36.3733 119.222 36.08C119.729 35.7867 120.222 35.2667 120.702 34.52C121.182 33.7467 121.755 32.6133 122.422 31.12L131.022 11.76C131.075 11.68 131.195 11.64 131.382 11.64C131.569 11.64 131.675 11.68 131.702 11.76L141.502 31.52C142.409 33.44 143.169 34.76 143.782 35.48C144.422 36.1733 145.115 36.52 145.862 36.52ZM22.3934 63.32C22.3934 62.52 22.3134 61.9333 22.1534 61.56C21.9934 61.16 21.6734 60.88 21.1934 60.72C20.7134 60.56 19.9801 60.48 18.9934 60.48C18.9134 60.48 18.8734 60.4 18.8734 60.24C18.8734 60.08 18.9134 60 18.9934 60L20.9134 60.04C22.1934 60.0933 23.3268 60.12 24.3134 60.12C25.0334 60.12 26.0068 60.0933 27.2334 60.04L29.4334 60C29.5134 60 29.5534 60.08 29.5534 60.24C29.5534 60.4 29.5134 60.48 29.4334 60.48C28.4734 60.48 27.7668 60.56 27.3134 60.72C26.8601 60.8533 26.5534 61.1067 26.3934 61.48C26.2334 61.8533 26.1534 62.44 26.1534 63.24V81.76C26.1534 82.56 26.2334 83.16 26.3934 83.56C26.5534 83.9333 26.8601 84.1867 27.3134 84.32C27.7668 84.4533 28.4734 84.52 29.4334 84.52C29.5134 84.52 29.5534 84.6 29.5534 84.76C29.5534 84.92 29.5134 85 29.4334 85C28.5268 85 27.7934 84.9867 27.2334 84.96L24.3134 84.92L20.9134 84.96C20.4334 84.9867 19.7934 85 18.9934 85C18.9134 85 18.8734 84.92 18.8734 84.76C18.8734 84.6 18.9134 84.52 18.9934 84.52C20.0068 84.52 20.7401 84.4533 21.1934 84.32C21.6734 84.1867 21.9934 83.9333 22.1534 83.56C22.3134 83.16 22.3934 82.56 22.3934 81.76V63.32ZM6.59344 71.48H24.1134V72.52H6.59344V71.48ZM4.83344 63.24C4.83344 62.44 4.75344 61.8533 4.59344 61.48C4.43344 61.1067 4.12677 60.8533 3.67344 60.72C3.2201 60.56 2.52677 60.48 1.59344 60.48C1.5401 60.48 1.51344 60.4 1.51344 60.24C1.51344 60.08 1.5401 60 1.59344 60L3.71344 60.04C4.9401 60.0933 5.9001 60.12 6.59344 60.12C7.52677 60.12 8.63344 60.0933 9.91344 60.04L11.9934 60C12.0468 60 12.0734 60.08 12.0734 60.24C12.0734 60.4 12.0468 60.48 11.9934 60.48C11.0334 60.48 10.3134 60.56 9.83344 60.72C9.3801 60.88 9.0601 61.16 8.87344 61.56C8.71344 61.9333 8.63344 62.52 8.63344 63.32V81.76C8.63344 82.56 8.71344 83.16 8.87344 83.56C9.03344 83.9333 9.3401 84.1867 9.79344 84.32C10.2734 84.4533 11.0068 84.52 11.9934 84.52C12.0468 84.52 12.0734 84.6 12.0734 84.76C12.0734 84.92 12.0468 85 11.9934 85C11.0868 85 10.3801 84.9867 9.87344 84.96L6.59344 84.92L3.67344 84.96C3.16677 84.9867 2.4601 85 1.55344 85C1.5001 85 1.47344 84.92 1.47344 84.76C1.47344 84.6 1.5001 84.52 1.55344 84.52C2.51344 84.52 3.2201 84.4533 3.67344 84.32C4.12677 84.1867 4.43344 83.9333 4.59344 83.56C4.75344 83.16 4.83344 82.56 4.83344 81.76V63.24ZM39.4222 81.76C39.4222 82.5867 39.4889 83.1867 39.6222 83.56C39.7822 83.9333 40.0622 84.1867 40.4622 84.32C40.8889 84.4533 41.5555 84.52 42.4622 84.52C42.5422 84.52 42.5822 84.6 42.5822 84.76C42.5822 84.92 42.5422 85 42.4622 85C41.6089 85 40.9289 84.9867 40.4222 84.96L37.4622 84.92L34.5822 84.96C34.0755 84.9867 33.3822 85 32.5022 85C32.4222 85 32.3822 84.92 32.3822 84.76C32.3822 84.6 32.4222 84.52 32.5022 84.52C33.4089 84.52 34.0622 84.4533 34.4622 84.32C34.8889 84.1867 35.1822 83.9333 35.3422 83.56C35.5022 83.16 35.5822 82.56 35.5822 81.76V63.24C35.5822 62.44 35.5022 61.8533 35.3422 61.48C35.1822 61.1067 34.8889 60.8533 34.4622 60.72C34.0622 60.56 33.4089 60.48 32.5022 60.48C32.4222 60.48 32.3822 60.4 32.3822 60.24C32.3822 60.08 32.4222 60 32.5022 60L34.5822 60.04C35.7555 60.0933 36.7155 60.12 37.4622 60.12C38.2889 60.12 39.2889 60.0933 40.4622 60.04L42.4622 60C42.5422 60 42.5822 60.08 42.5822 60.24C42.5822 60.4 42.5422 60.48 42.4622 60.48C41.5822 60.48 40.9289 60.56 40.5022 60.72C40.0755 60.88 39.7822 61.16 39.6222 61.56C39.4889 61.9333 39.4222 62.52 39.4222 63.32V81.76ZM50.8569 64.24C50.8569 65.2267 51.0969 66.1067 51.5769 66.88C52.0835 67.6267 52.6969 68.28 53.4169 68.84C54.1369 69.3733 55.1235 70.04 56.3769 70.84C57.7369 71.6933 58.8035 72.4267 59.5769 73.04C60.3769 73.6533 61.0569 74.4133 61.6169 75.32C62.1769 76.2 62.4569 77.24 62.4569 78.44C62.4569 79.8 62.0969 81.0133 61.3769 82.08C60.6835 83.1467 59.6835 83.9867 58.3769 84.6C57.0969 85.1867 55.6302 85.48 53.9769 85.48C52.8569 85.48 51.6969 85.3333 50.4969 85.04C49.3235 84.7467 48.4302 84.3867 47.8169 83.96C47.5769 83.8 47.4435 83.5467 47.4169 83.2L47.1769 77.16V77.12C47.1769 77.0133 47.2435 76.96 47.3769 76.96C47.5102 76.9333 47.5902 76.9733 47.6169 77.08C48.4969 79.2667 49.4969 81.0667 50.6169 82.48C51.7635 83.8933 53.2035 84.6 54.9369 84.6C56.1102 84.6 57.0835 84.2933 57.8569 83.68C58.6302 83.04 59.0169 81.9867 59.0169 80.52C59.0169 79.3467 58.7502 78.32 58.2169 77.44C57.7102 76.56 57.0702 75.8267 56.2969 75.24C55.5502 74.6533 54.5235 73.9333 53.2169 73.08C51.9369 72.2533 50.9369 71.56 50.2169 71C49.4969 70.4133 48.8835 69.7067 48.3769 68.88C47.8702 68.0267 47.6169 67.04 47.6169 65.92C47.6169 64.5333 48.0035 63.36 48.7769 62.4C49.5502 61.44 50.5502 60.7333 51.7769 60.28C53.0302 59.8 54.3369 59.56 55.6969 59.56C56.5769 59.56 57.4702 59.6533 58.3769 59.84C59.2835 60 60.0569 60.2133 60.6969 60.48C61.0969 60.64 61.2969 60.8933 61.2969 61.24L61.3769 66.64C61.3769 66.7467 61.3102 66.8133 61.1769 66.84C61.0702 66.8667 60.9902 66.84 60.9369 66.76C60.4035 65.1333 59.6835 63.6667 58.7769 62.36C57.8969 61.0267 56.5635 60.36 54.7769 60.36C53.5769 60.36 52.6169 60.72 51.8969 61.44C51.2035 62.1333 50.8569 63.0667 50.8569 64.24ZM72.9703 60.84C71.3436 60.84 70.0103 61.3467 68.9703 62.36C67.9303 63.3467 67.1303 64.84 66.5703 66.84C66.5703 66.92 66.4903 66.96 66.3303 66.96C66.197 66.9333 66.1303 66.8933 66.1303 66.84C66.237 65.8 66.357 64.4667 66.4903 62.84C66.6236 61.1867 66.6903 59.9467 66.6903 59.12C66.6903 58.9867 66.757 58.92 66.8903 58.92C67.0503 58.92 67.1303 58.9867 67.1303 59.12C67.1303 59.7067 67.877 60 69.3703 60C71.6636 60.08 74.3436 60.12 77.4103 60.12C78.9836 60.12 80.6503 60.0933 82.4103 60.04L85.1303 60C86.1436 60 86.877 59.9333 87.3303 59.8C87.8103 59.6667 88.117 59.4 88.2503 59C88.277 58.8933 88.357 58.84 88.4903 58.84C88.6236 58.84 88.6903 58.8933 88.6903 59C88.6103 59.8267 88.5303 61.08 88.4503 62.76C88.3703 64.44 88.3303 65.8 88.3303 66.84C88.3303 66.8933 88.2503 66.92 88.0903 66.92C87.957 66.92 87.877 66.8933 87.8503 66.84C87.5836 64.7867 86.957 63.28 85.9703 62.32C84.9836 61.3333 83.6503 60.84 81.9703 60.84C81.2236 60.84 80.6636 60.9067 80.2903 61.04C79.9436 61.1733 79.7036 61.4133 79.5703 61.76C79.437 62.08 79.3703 62.6 79.3703 63.32V81.76C79.3703 82.56 79.4503 83.16 79.6103 83.56C79.797 83.9333 80.1303 84.1867 80.6103 84.32C81.0903 84.4533 81.8503 84.52 82.8903 84.52C82.9703 84.52 83.0103 84.6 83.0103 84.76C83.0103 84.92 82.9703 85 82.8903 85C81.957 85 81.2236 84.9867 80.6903 84.96L77.4103 84.92L74.2903 84.96C73.7303 84.9867 72.957 85 71.9703 85C71.917 85 71.8903 84.92 71.8903 84.76C71.8903 84.6 71.917 84.52 71.9703 84.52C73.0103 84.52 73.7703 84.4533 74.2503 84.32C74.757 84.1867 75.0903 83.9333 75.2503 83.56C75.437 83.16 75.5303 82.56 75.5303 81.76V63.24C75.5303 62.5467 75.4636 62.04 75.3303 61.72C75.197 61.3733 74.957 61.1467 74.6103 61.04C74.2636 60.9067 73.717 60.84 72.9703 60.84ZM104.171 85.48C101.691 85.48 99.4779 84.9067 97.5313 83.76C95.6113 82.5867 94.1179 81.0133 93.0513 79.04C92.0113 77.04 91.4913 74.8667 91.4913 72.52C91.4913 69.7733 92.1846 67.4267 93.5713 65.48C94.9579 63.5067 96.7313 62.0267 98.8913 61.04C101.078 60.0533 103.305 59.56 105.571 59.56C108.105 59.56 110.331 60.16 112.251 61.36C114.171 62.5333 115.638 64.0933 116.651 66.04C117.691 67.9867 118.211 70.0533 118.211 72.24C118.211 74.6667 117.571 76.8933 116.291 78.92C115.011 80.9467 113.291 82.5467 111.131 83.72C108.998 84.8933 106.678 85.48 104.171 85.48ZM105.531 84.52C107.131 84.52 108.558 84.0933 109.811 83.24C111.091 82.36 112.091 81.08 112.811 79.4C113.558 77.72 113.931 75.72 113.931 73.4C113.931 70.92 113.518 68.72 112.691 66.8C111.891 64.8533 110.731 63.3333 109.211 62.24C107.718 61.1467 105.958 60.6 103.931 60.6C101.318 60.6 99.3046 61.5333 97.8913 63.4C96.4779 65.24 95.7713 67.8 95.7713 71.08C95.7713 73.64 96.1846 75.9467 97.0113 78C97.8379 80.0267 98.9979 81.6267 100.491 82.8C101.985 83.9467 103.665 84.52 105.531 84.52ZM141.676 85C141.036 85 139.85 83.88 138.116 81.64C136.41 79.4 134.33 76.28 131.876 72.28L135.076 71.32C137.316 74.6533 139.183 77.2667 140.676 79.16C142.196 81.0267 143.543 82.3867 144.716 83.24C145.89 84.0933 147.023 84.52 148.116 84.52C148.17 84.52 148.196 84.6 148.196 84.76C148.196 84.92 148.17 85 148.116 85H141.676ZM132.596 59.88C134.89 59.88 136.676 60.3467 137.956 61.28C139.236 62.1867 139.876 63.44 139.876 65.04C139.876 66.5333 139.45 67.88 138.596 69.08C137.743 70.28 136.61 71.2267 135.196 71.92C133.81 72.5867 132.343 72.92 130.796 72.92C130.236 72.92 129.556 72.8933 128.756 72.84V81.76C128.756 82.5867 128.823 83.1867 128.956 83.56C129.09 83.9333 129.356 84.1867 129.756 84.32C130.183 84.4533 130.863 84.52 131.796 84.52C131.85 84.52 131.876 84.6 131.876 84.76C131.876 84.92 131.85 85 131.796 85C130.916 85 130.223 84.9867 129.716 84.96L126.796 84.92L123.916 84.96C123.41 84.9867 122.716 85 121.836 85C121.756 85 121.716 84.92 121.716 84.76C121.716 84.6 121.756 84.52 121.836 84.52C122.743 84.52 123.396 84.4533 123.796 84.32C124.223 84.1867 124.516 83.9333 124.676 83.56C124.836 83.16 124.916 82.56 124.916 81.76V63.24C124.916 62.44 124.836 61.8533 124.676 61.48C124.543 61.1067 124.263 60.8533 123.836 60.72C123.41 60.56 122.756 60.48 121.876 60.48C121.823 60.48 121.796 60.4 121.796 60.24C121.796 60.08 121.823 60 121.876 60L123.956 60.04C125.13 60.0933 126.076 60.12 126.796 60.12C127.676 60.12 128.636 60.08 129.676 60C130.023 59.9733 130.436 59.9467 130.916 59.92C131.423 59.8933 131.983 59.88 132.596 59.88ZM135.916 66.44C135.916 64.28 135.543 62.7733 134.796 61.92C134.076 61.0667 133.023 60.64 131.636 60.64C130.57 60.64 129.823 60.84 129.396 61.24C128.97 61.6133 128.756 62.3067 128.756 63.32V71.76C129.396 71.8667 130.17 71.92 131.076 71.92C132.81 71.92 134.05 71.4933 134.796 70.64C135.543 69.76 135.916 68.36 135.916 66.44ZM156.414 81.76C156.414 82.5867 156.481 83.1867 156.614 83.56C156.774 83.9333 157.054 84.1867 157.454 84.32C157.881 84.4533 158.548 84.52 159.454 84.52C159.534 84.52 159.574 84.6 159.574 84.76C159.574 84.92 159.534 85 159.454 85C158.601 85 157.921 84.9867 157.414 84.96L154.454 84.92L151.574 84.96C151.068 84.9867 150.374 85 149.494 85C149.414 85 149.374 84.92 149.374 84.76C149.374 84.6 149.414 84.52 149.494 84.52C150.401 84.52 151.054 84.4533 151.454 84.32C151.881 84.1867 152.174 83.9333 152.334 83.56C152.494 83.16 152.574 82.56 152.574 81.76V63.24C152.574 62.44 152.494 61.8533 152.334 61.48C152.174 61.1067 151.881 60.8533 151.454 60.72C151.054 60.56 150.401 60.48 149.494 60.48C149.414 60.48 149.374 60.4 149.374 60.24C149.374 60.08 149.414 60 149.494 60L151.574 60.04C152.748 60.0933 153.708 60.12 154.454 60.12C155.281 60.12 156.281 60.0933 157.454 60.04L159.454 60C159.534 60 159.574 60.08 159.574 60.24C159.574 60.4 159.534 60.48 159.454 60.48C158.574 60.48 157.921 60.56 157.494 60.72C157.068 60.88 156.774 61.16 156.614 61.56C156.481 61.9333 156.414 62.52 156.414 63.32V81.76ZM168.969 74.2H180.169L180.449 75.2H168.449L168.969 74.2ZM189.729 84.52C189.836 84.52 189.889 84.6 189.889 84.76C189.889 84.92 189.836 85 189.729 85C189.222 85 188.409 84.9733 187.289 84.92C186.169 84.8667 185.356 84.84 184.849 84.84C184.182 84.84 183.396 84.8667 182.489 84.92C181.582 84.9733 180.876 85 180.369 85C180.262 85 180.209 84.92 180.209 84.76C180.209 84.6 180.262 84.52 180.369 84.52C181.169 84.52 181.742 84.44 182.089 84.28C182.436 84.0933 182.609 83.8 182.609 83.4C182.609 83 182.382 82.32 181.929 81.36L173.569 64.36L175.209 61.68L167.289 79.52C166.942 80.32 166.769 81.04 166.769 81.68C166.769 82.6133 167.102 83.32 167.769 83.8C168.436 84.28 169.369 84.52 170.569 84.52C170.702 84.52 170.769 84.6 170.769 84.76C170.769 84.92 170.702 85 170.569 85C170.089 85 169.396 84.9733 168.489 84.92C167.476 84.8667 166.596 84.84 165.849 84.84C165.129 84.84 164.289 84.8667 163.329 84.92C162.476 84.9733 161.769 85 161.209 85C161.076 85 161.009 84.92 161.009 84.76C161.009 84.6 161.076 84.52 161.209 84.52C161.956 84.52 162.582 84.3733 163.089 84.08C163.596 83.7867 164.089 83.2667 164.569 82.52C165.049 81.7467 165.622 80.6133 166.289 79.12L174.889 59.76C174.942 59.68 175.062 59.64 175.249 59.64C175.436 59.64 175.542 59.68 175.569 59.76L185.369 79.52C186.276 81.44 187.036 82.76 187.649 83.48C188.289 84.1733 188.982 84.52 189.729 84.52Z" fill="black"/>
<path d="M116.613 89.6509L123.662 101.205C123.878 101.558 123.766 102.02 123.413 102.235L121.724 103.266C121.37 103.482 120.908 103.37 120.693 103.016L113.644 91.4627L116.613 89.6509Z" fill="black" stroke="black" stroke-width="0.5"/>
<path d="M113.126 90.3129L110.947 86.7415C110.804 86.5059 110.878 86.1982 111.114 86.0543L112.928 84.9475C113.163 84.8037 113.471 84.8783 113.615 85.1139L115.794 88.6853L113.126 90.3129Z" stroke="black"/>
</svg>
