<svg width="333" height="61" viewBox="0 0 333 61" fill="none" xmlns="http://www.w3.org/2000/svg">
<path d="M9.76324e-05 40.12V39.12L0.360098 39.08C1.29343 38.9467 2.05343 38.76 2.6401 38.52C3.25343 38.28 3.77343 37.8933 4.2001 37.36C4.65343 36.8 5.0801 36.04 5.4801 35.08L15.1601 11.6H16.5201L25.9601 35.08C26.4934 36.3867 27.0668 37.3467 27.6801 37.96C28.2934 38.5733 29.1334 38.9333 30.2001 39.04L31.0001 39.12V40.12L26.0401 40L19.6401 40.12V39.12L20.4401 39.04C21.3734 38.9333 22.0401 38.7333 22.4401 38.44C22.8401 38.1467 23.0401 37.7333 23.0401 37.2C23.0401 36.6667 22.8534 35.9467 22.4801 35.04L20.4001 29.84H9.1201L6.9601 35.04C6.77343 35.52 6.61343 35.96 6.4801 36.36C6.34676 36.7333 6.2801 37.0667 6.2801 37.36C6.2801 37.8667 6.49343 38.2533 6.9201 38.52C7.37343 38.7867 8.10676 38.96 9.1201 39.04L9.9201 39.12V40.12L4.8401 40L9.76324e-05 40.12ZM9.6401 28.56H19.9201L14.8801 15.88L9.6401 28.56ZM44.5632 40.44C41.2299 40.44 38.6432 39.7067 36.8032 38.24C34.9632 36.7733 34.0432 34.3867 34.0432 31.08V16.92C34.0432 15.5867 33.9499 14.64 33.7632 14.08C33.5766 13.52 33.2299 13.16 32.7232 13C32.2432 12.8133 31.5366 12.6667 30.6032 12.56L29.8032 12.48V11.48L35.7232 11.6H35.7632L41.6832 11.48V12.48L40.8832 12.56C39.9766 12.6667 39.2699 12.8133 38.7632 13C38.2566 13.16 37.9099 13.52 37.7232 14.08C37.5366 14.64 37.4432 15.5867 37.4432 16.92V31.08C37.4432 33.7733 38.1766 35.7867 39.6432 37.12C41.1099 38.4533 43.0032 39.12 45.3232 39.12C48.0166 39.12 49.9632 38.3867 51.1632 36.92C52.3632 35.4267 52.9632 33.4 52.9632 30.84V16.92C52.9632 15.5867 52.8699 14.64 52.6832 14.08C52.4966 13.52 52.1499 13.16 51.6432 13C51.1632 12.8133 50.4566 12.6667 49.5232 12.56L48.7232 12.48V11.48L54.6432 11.56L58.6032 11.48V12.48L57.8032 12.56C56.8966 12.6667 56.1899 12.8133 55.6832 13C55.1766 13.16 54.8299 13.52 54.6432 14.08C54.4566 14.64 54.3632 15.5867 54.3632 16.92V30.84C54.3632 33.9333 53.5499 36.3067 51.9232 37.96C50.2966 39.6133 47.8432 40.44 44.5632 40.44ZM83.0832 40.44C81.6166 40.44 80.5232 39.9467 79.8032 38.96C79.1099 37.9467 78.6566 36.7067 78.4432 35.24C78.3099 34.1733 78.0966 33.1067 77.8032 32.04C77.5366 30.9733 77.0966 30 76.4832 29.12C75.8966 28.2133 75.0566 27.4933 73.9632 26.96C72.8966 26.4267 71.4966 26.16 69.7632 26.16H68.0432V34.68C68.0432 35.9867 68.1366 36.9333 68.3232 37.52C68.5099 38.08 68.8566 38.4533 69.3632 38.64C69.8699 38.8 70.5766 38.9333 71.4832 39.04L72.2832 39.12V40.12L66.3632 40H66.3232L60.4032 40.12V39.12L61.2032 39.04C62.1366 38.9333 62.8432 38.8 63.3232 38.64C63.8299 38.4533 64.1766 38.08 64.3632 37.52C64.5499 36.9333 64.6432 35.9867 64.6432 34.68V16.92C64.6432 15.5867 64.5499 14.64 64.3632 14.08C64.1766 13.52 63.8299 13.16 63.3232 13C62.8432 12.8133 62.1366 12.6667 61.2032 12.56L60.4032 12.48V11.48L66.3232 11.6H71.9232C73.7366 11.6 75.4166 11.8133 76.9632 12.24C78.5099 12.64 79.7499 13.3467 80.6832 14.36C81.6432 15.3733 82.1232 16.7867 82.1232 18.6C82.1232 20.2 81.7632 21.5067 81.0432 22.52C80.3499 23.5067 79.4166 24.2667 78.2432 24.8C77.0966 25.3067 75.8432 25.6667 74.4832 25.88C76.4566 26.0133 78.0566 26.6933 79.2832 27.92C80.5366 29.12 81.3366 30.8933 81.6832 33.24C81.9232 34.7333 82.2166 35.9067 82.5632 36.76C82.9366 37.5867 83.3366 38.1733 83.7632 38.52C84.2166 38.84 84.6699 39 85.1232 39C85.4166 39 85.6966 38.9467 85.9632 38.84C86.2566 38.7333 86.5099 38.6267 86.7232 38.52L87.0032 39.52C86.5766 39.7333 86.0032 39.9333 85.2832 40.12C84.5632 40.3333 83.8299 40.44 83.0832 40.44ZM72.0032 12.64H68.0432V25.08H71.4032C73.9632 25.08 75.7499 24.56 76.7632 23.52C77.8032 22.48 78.3232 20.92 78.3232 18.84C78.3232 16.8667 77.8566 15.3467 76.9232 14.28C75.9899 13.1867 74.3499 12.64 72.0032 12.64ZM86.0157 40.12V39.12L86.3757 39.08C87.3091 38.9467 88.0691 38.76 88.6557 38.52C89.2691 38.28 89.7891 37.8933 90.2157 37.36C90.6691 36.8 91.0957 36.04 91.4957 35.08L101.176 11.6H102.536L111.976 35.08C112.509 36.3867 113.082 37.3467 113.696 37.96C114.309 38.5733 115.149 38.9333 116.216 39.04L117.016 39.12V40.12L112.056 40L105.656 40.12V39.12L106.456 39.04C107.389 38.9333 108.056 38.7333 108.456 38.44C108.856 38.1467 109.056 37.7333 109.056 37.2C109.056 36.6667 108.869 35.9467 108.496 35.04L106.416 29.84H95.1357L92.9757 35.04C92.7891 35.52 92.6291 35.96 92.4957 36.36C92.3624 36.7333 92.2957 37.0667 92.2957 37.36C92.2957 37.8667 92.5091 38.2533 92.9357 38.52C93.3891 38.7867 94.1224 38.96 95.1357 39.04L95.9357 39.12V40.12L90.8557 40L86.0157 40.12ZM95.6557 28.56H105.936L100.896 15.88L95.6557 28.56ZM127.786 40.12V39.12L128.586 39.04C129.519 38.9333 130.226 38.8 130.706 38.64C131.213 38.4533 131.559 38.08 131.746 37.52C131.933 36.9333 132.026 35.9867 132.026 34.68V16.92C132.026 15.5867 131.933 14.64 131.746 14.08C131.559 13.52 131.213 13.16 130.706 13C130.226 12.8133 129.519 12.6667 128.586 12.56L127.786 12.48V11.48L133.706 11.6H133.746L139.666 11.48V12.48L138.866 12.56C137.959 12.6667 137.253 12.8133 136.746 13C136.239 13.16 135.893 13.52 135.706 14.08C135.519 14.64 135.426 15.5867 135.426 16.92V24.64H150.666V16.92C150.666 15.5867 150.573 14.64 150.386 14.08C150.199 13.52 149.853 13.16 149.346 13C148.866 12.8133 148.159 12.6667 147.226 12.56L146.426 12.48V11.48L152.346 11.6H152.386L158.306 11.48V12.48L157.506 12.56C156.599 12.6667 155.893 12.8133 155.386 13C154.879 13.16 154.533 13.52 154.346 14.08C154.159 14.64 154.066 15.5867 154.066 16.92V34.68C154.066 35.9867 154.159 36.9333 154.346 37.52C154.533 38.08 154.879 38.4533 155.386 38.64C155.893 38.8 156.599 38.9333 157.506 39.04L158.306 39.12V40.12L152.386 40H152.346L146.426 40.12V39.12L147.226 39.04C148.159 38.9333 148.866 38.8 149.346 38.64C149.853 38.4533 150.199 38.08 150.386 37.52C150.573 36.9333 150.666 35.9867 150.666 34.68V25.92H135.426V34.68C135.426 35.9867 135.519 36.9333 135.706 37.52C135.893 38.08 136.239 38.4533 136.746 38.64C137.253 38.8 137.959 38.9333 138.866 39.04L139.666 39.12V40.12L133.746 40H133.706L127.786 40.12ZM161.497 40.12V39.12L162.297 39.04C163.23 38.9333 163.937 38.8 164.417 38.64C164.924 38.4533 165.27 38.08 165.457 37.52C165.644 36.9333 165.737 35.9867 165.737 34.68V16.92C165.737 15.5867 165.644 14.64 165.457 14.08C165.27 13.52 164.924 13.16 164.417 13C163.937 12.8133 163.23 12.6667 162.297 12.56L161.497 12.48V11.48L167.417 11.6H167.457L173.377 11.48V12.48L172.577 12.56C171.67 12.6667 170.964 12.8133 170.457 13C169.95 13.16 169.604 13.52 169.417 14.08C169.23 14.64 169.137 15.5867 169.137 16.92V34.68C169.137 35.9867 169.23 36.9333 169.417 37.52C169.604 38.08 169.95 38.4533 170.457 38.64C170.964 38.8 171.67 38.9333 172.577 39.04L173.377 39.12V40.12L167.457 40H167.417L161.497 40.12ZM187.335 40.44C186.268 40.44 185.295 40.2667 184.415 39.92C183.562 39.5733 182.788 39.2267 182.095 38.88C181.508 38.56 181.015 38.32 180.615 38.16C180.242 38 179.908 37.92 179.615 37.92C179.242 37.92 178.975 38.08 178.815 38.4C178.682 38.6933 178.575 39.0267 178.495 39.4L178.375 40H177.375L177.575 35.28L177.455 30.12H178.455L178.895 32C179.188 33.1733 179.708 34.32 180.455 35.44C181.228 36.56 182.188 37.48 183.335 38.2C184.508 38.92 185.842 39.28 187.335 39.28C188.162 39.28 188.948 39.1067 189.695 38.76C190.468 38.3867 191.095 37.8267 191.575 37.08C192.082 36.3333 192.335 35.36 192.335 34.16C192.335 32.3733 191.748 30.9333 190.575 29.84C189.428 28.7467 187.828 27.7067 185.775 26.72L184.095 25.92C182.095 24.96 180.602 23.9067 179.615 22.76C178.655 21.5867 178.175 20.0933 178.175 18.28C178.175 16.8667 178.522 15.6133 179.215 14.52C179.908 13.4267 180.855 12.5733 182.055 11.96C183.282 11.3467 184.682 11.04 186.255 11.04C187.348 11.04 188.268 11.1867 189.015 11.48C189.762 11.7733 190.348 12.0267 190.775 12.24C191.468 12.5867 192.015 12.76 192.415 12.76C192.842 12.76 193.095 12.3467 193.175 11.52H194.175L194.055 15.36L194.135 19.24H193.135C192.975 17.7467 192.562 16.48 191.895 15.44C191.228 14.3733 190.415 13.56 189.455 13C188.522 12.44 187.522 12.16 186.455 12.16C184.882 12.16 183.602 12.6133 182.615 13.52C181.655 14.4267 181.175 15.5867 181.175 17C181.175 18.52 181.668 19.72 182.655 20.6C183.642 21.4533 184.922 22.2667 186.495 23.04L188.135 23.84C189.602 24.56 190.855 25.3067 191.895 26.08C192.962 26.8267 193.775 27.7067 194.335 28.72C194.922 29.7333 195.215 31 195.215 32.52C195.215 34.0933 194.855 35.48 194.135 36.68C193.442 37.88 192.495 38.8133 191.295 39.48C190.122 40.12 188.802 40.44 187.335 40.44ZM205.637 40.12V39.12L206.517 39.04C207.61 38.9333 208.437 38.8 208.997 38.64C209.584 38.4533 209.984 38.08 210.197 37.52C210.437 36.9333 210.557 35.9867 210.557 34.68V12.68H204.917C203.69 12.68 202.717 12.92 201.997 13.4C201.304 13.8533 200.69 14.6 200.157 15.64C199.65 16.68 199.05 18.0667 198.357 19.8L197.517 19.6L198.517 14.68L198.957 11.48L210.357 11.6H214.157L225.597 11.48L226.037 14.68L227.037 19.6L226.157 19.84C225.544 18.2933 224.97 16.9867 224.437 15.92C223.93 14.8533 223.33 14.0533 222.637 13.52C221.944 12.96 221.024 12.68 219.877 12.68H213.957V34.68C213.957 35.9867 214.064 36.9333 214.277 37.52C214.517 38.08 214.93 38.4533 215.517 38.64C216.104 38.8 216.93 38.9333 217.997 39.04L218.877 39.12V40.12L212.357 40L205.637 40.12ZM243.523 40.44C241.523 40.44 239.669 40.08 237.963 39.36C236.283 38.64 234.816 37.6267 233.563 36.32C232.336 35.0133 231.376 33.4667 230.683 31.68C229.989 29.8667 229.643 27.88 229.643 25.72C229.643 23.56 229.989 21.5867 230.683 19.8C231.376 18.0133 232.336 16.4667 233.563 15.16C234.816 13.8533 236.283 12.84 237.963 12.12C239.669 11.4 241.523 11.04 243.523 11.04C245.523 11.04 247.363 11.4 249.043 12.12C250.749 12.84 252.216 13.8533 253.443 15.16C254.696 16.4667 255.669 18.0133 256.363 19.8C257.056 21.5867 257.403 23.56 257.403 25.72C257.403 27.88 257.056 29.8667 256.363 31.68C255.669 33.4667 254.696 35.0133 253.443 36.32C252.216 37.6267 250.749 38.64 249.043 39.36C247.363 40.08 245.523 40.44 243.523 40.44ZM243.523 39.24C245.843 39.24 247.723 38.6933 249.163 37.6C250.603 36.5067 251.656 34.96 252.323 32.96C252.989 30.9333 253.323 28.52 253.323 25.72C253.323 22.92 252.989 20.52 252.323 18.52C251.656 16.4933 250.603 14.9467 249.163 13.88C247.723 12.7867 245.843 12.24 243.523 12.24C241.229 12.24 239.349 12.7867 237.883 13.88C236.443 14.9467 235.389 16.4933 234.723 18.52C234.056 20.52 233.723 22.92 233.723 25.72C233.723 28.52 234.056 30.9333 234.723 32.96C235.389 34.96 236.443 36.5067 237.883 37.6C239.349 38.6933 241.229 39.24 243.523 39.24ZM283.396 40.44C281.929 40.44 280.836 39.9467 280.116 38.96C279.422 37.9467 278.969 36.7067 278.756 35.24C278.622 34.1733 278.409 33.1067 278.116 32.04C277.849 30.9733 277.409 30 276.796 29.12C276.209 28.2133 275.369 27.4933 274.276 26.96C273.209 26.4267 271.809 26.16 270.076 26.16H268.356V34.68C268.356 35.9867 268.449 36.9333 268.636 37.52C268.822 38.08 269.169 38.4533 269.676 38.64C270.182 38.8 270.889 38.9333 271.796 39.04L272.596 39.12V40.12L266.676 40H266.636L260.716 40.12V39.12L261.516 39.04C262.449 38.9333 263.156 38.8 263.636 38.64C264.142 38.4533 264.489 38.08 264.676 37.52C264.862 36.9333 264.956 35.9867 264.956 34.68V16.92C264.956 15.5867 264.862 14.64 264.676 14.08C264.489 13.52 264.142 13.16 263.636 13C263.156 12.8133 262.449 12.6667 261.516 12.56L260.716 12.48V11.48L266.636 11.6H272.236C274.049 11.6 275.729 11.8133 277.276 12.24C278.822 12.64 280.062 13.3467 280.996 14.36C281.956 15.3733 282.436 16.7867 282.436 18.6C282.436 20.2 282.076 21.5067 281.356 22.52C280.662 23.5067 279.729 24.2667 278.556 24.8C277.409 25.3067 276.156 25.6667 274.796 25.88C276.769 26.0133 278.369 26.6933 279.596 27.92C280.849 29.12 281.649 30.8933 281.996 33.24C282.236 34.7333 282.529 35.9067 282.876 36.76C283.249 37.5867 283.649 38.1733 284.076 38.52C284.529 38.84 284.982 39 285.436 39C285.729 39 286.009 38.9467 286.276 38.84C286.569 38.7333 286.822 38.6267 287.036 38.52L287.316 39.52C286.889 39.7333 286.316 39.9333 285.596 40.12C284.876 40.3333 284.142 40.44 283.396 40.44ZM272.316 12.64H268.356V25.08H271.716C274.276 25.08 276.062 24.56 277.076 23.52C278.116 22.48 278.636 20.92 278.636 18.84C278.636 16.8667 278.169 15.3467 277.236 14.28C276.302 13.1867 274.662 12.64 272.316 12.64ZM288.528 40.12V39.12L289.328 39.04C290.262 38.9333 290.968 38.8 291.448 38.64C291.955 38.4533 292.302 38.08 292.488 37.52C292.675 36.9333 292.768 35.9867 292.768 34.68V16.92C292.768 15.5867 292.675 14.64 292.488 14.08C292.302 13.52 291.955 13.16 291.448 13C290.968 12.8133 290.262 12.6667 289.328 12.56L288.528 12.48V11.48L294.448 11.6H294.488L300.408 11.48V12.48L299.608 12.56C298.702 12.6667 297.995 12.8133 297.488 13C296.982 13.16 296.635 13.52 296.448 14.08C296.262 14.64 296.168 15.5867 296.168 16.92V34.68C296.168 35.9867 296.262 36.9333 296.448 37.52C296.635 38.08 296.982 38.4533 297.488 38.64C297.995 38.8 298.702 38.9333 299.608 39.04L300.408 39.12V40.12L294.488 40H294.448L288.528 40.12ZM301.406 40.12V39.12L301.766 39.08C302.7 38.9467 303.46 38.76 304.046 38.52C304.66 38.28 305.18 37.8933 305.606 37.36C306.06 36.8 306.486 36.04 306.886 35.08L316.566 11.6H317.926L327.366 35.08C327.9 36.3867 328.473 37.3467 329.086 37.96C329.7 38.5733 330.54 38.9333 331.606 39.04L332.406 39.12V40.12L327.446 40L321.046 40.12V39.12L321.846 39.04C322.78 38.9333 323.446 38.7333 323.846 38.44C324.246 38.1467 324.446 37.7333 324.446 37.2C324.446 36.6667 324.26 35.9467 323.886 35.04L321.806 29.84H310.526L308.366 35.04C308.18 35.52 308.02 35.96 307.886 36.36C307.753 36.7333 307.686 37.0667 307.686 37.36C307.686 37.8667 307.9 38.2533 308.326 38.52C308.78 38.7867 309.513 38.96 310.526 39.04L311.326 39.12V40.12L306.246 40L301.406 40.12ZM311.046 28.56H321.326L316.286 15.88L311.046 28.56Z" fill="black"/>
<path d="M250.751 44.4731L250.353 41.3494L252.363 40.3086L255.014 42.546L254.913 45.1515L253.2 45.9107L250.751 44.4731Z" stroke="black" stroke-width="2"/>
<path d="M259.78 50.6168L259.788 50.6272L259.798 50.6364L264.512 55.525L260.795 57.8522L253.528 46.0942L254.969 45.349L259.78 50.6168Z" fill="black" stroke="black" stroke-width="2"/>
</svg>
